<svg width="25" height="25" viewBox="0 0 25 25" fill="none" xmlns="http://www.w3.org/2000/svg">
<path d="M16.954 14.7076L13.4683 12.0933V6.76802C13.4683 6.23257 13.0354 5.79976 12.5 5.79976C11.9646 5.79976 11.5317 6.23257 11.5317 6.76802V12.5775C11.5317 12.8825 11.675 13.1701 11.919 13.3521L15.792 16.2568C15.9663 16.3876 16.1696 16.4505 16.372 16.4505C16.6673 16.4505 16.9578 16.3178 17.1476 16.0622C17.4691 15.6352 17.3819 15.0281 16.954 14.7076Z" fill="#CC0000"/>
<path d="M12.5 0C5.60708 0 0 5.60708 0 12.5C0 19.3929 5.60708 25 12.5 25C19.3929 25 25 19.3929 25 12.5C25 5.60708 19.3929 0 12.5 0ZM12.5 23.0635C6.67603 23.0635 1.93647 18.324 1.93647 12.5C1.93647 6.67603 6.67603 1.93647 12.5 1.93647C18.325 1.93647 23.0635 6.67603 23.0635 12.5C23.0635 18.324 18.324 23.0635 12.5 23.0635Z" fill="#CC0000"/>
</svg>
