<svg width="25" height="25" viewBox="0 0 25 25" fill="none" xmlns="http://www.w3.org/2000/svg">
<path d="M24.2377 1.46382H19.2417V0.736945C19.2417 0.330029 18.9003 0 18.4793 0C18.0583 0 17.7168 0.330029 17.7168 0.736945V1.46382H13.2625V0.736945C13.2625 0.330029 12.921 0 12.5 0C12.079 0 11.7375 0.330029 11.7375 0.736945V1.46382H7.47253V0.736945C7.47253 0.330029 7.13108 0 6.71008 0C6.28908 0 5.94762 0.330029 5.94762 0.736945V1.46382H0.762451C0.341451 1.46382 0 1.79385 0 2.20076V18.8523C0 19.2592 0.341451 19.5892 0.762451 19.5892H5.44212C6.19199 22.6861 9.07075 25 12.5 25C15.9292 25 18.808 22.686 19.5579 19.5892H24.2375C24.6585 19.5892 25 19.2592 25 18.8523V2.20076C25.0001 1.79385 24.6588 1.46382 24.2377 1.46382ZM5.94762 2.93771V3.60366C5.94762 4.01058 6.28908 4.34061 6.71008 4.34061C7.13108 4.34061 7.47253 4.01058 7.47253 3.60366V2.93771H11.7375V3.60366C11.7375 4.01058 12.079 4.34061 12.5 4.34061C12.921 4.34061 13.2625 4.01058 13.2625 3.60366V2.93771H17.7168V3.60366C17.7168 4.01058 18.0583 4.34061 18.4793 4.34061C18.9003 4.34061 19.2417 4.01058 19.2417 3.60366V2.93771H23.4752V5.95132H1.5249V2.93771H5.94762ZM12.5 23.5261C9.3432 23.5261 6.77488 21.0437 6.77488 17.9925C6.77488 14.9413 9.3432 12.4589 12.5 12.4589C15.6568 12.4589 18.2251 14.9412 18.2251 17.9925C18.2251 21.0438 15.6569 23.5261 12.5 23.5261ZM19.7468 18.1153C19.7476 18.0743 19.75 18.0337 19.75 17.9925C19.75 14.1286 16.4977 10.985 12.5 10.985C8.50234 10.985 5.24998 14.1286 5.24998 17.9925C5.24998 18.0337 5.25252 18.0743 5.25316 18.1153H1.52477V7.42534H23.4751V18.1153H19.7468Z" fill="white"/>
<path d="M13.2625 18.1784V14.6133C13.2625 14.2064 12.921 13.8764 12.5 13.8764C12.079 13.8764 11.7375 14.2064 11.7375 14.6133V18.4838C11.7375 18.6792 11.8179 18.8666 11.9608 19.0049L13.7132 20.6988C13.8621 20.8426 14.0572 20.9146 14.2524 20.9146C14.4474 20.9146 14.6426 20.8426 14.7915 20.6988C15.0893 20.411 15.0893 19.9444 14.7915 19.6566L13.2625 18.1784Z" fill="white"/>
</svg>
