<svg width="20" height="20" viewBox="0 0 20 20" fill="none" xmlns="http://www.w3.org/2000/svg">
<path d="M17.8852 0C17.3433 0 16.8031 0.212292 16.3903 0.624987L16.0369 0.97824L19.0268 3.96731C19.0251 3.96901 19.3802 3.61406 19.3802 3.61406C20.2075 2.78697 20.2058 1.45038 19.3802 0.624987C18.9657 0.212292 18.4271 0 17.8852 0ZM15.371 1.75268C15.2725 1.76627 15.1808 1.81552 15.1128 1.88855L1.0061 16.0051C0.950037 16.0561 0.907568 16.1223 0.883785 16.1953L0.0140066 19.4561C-0.0250655 19.6056 0.0191031 19.7635 0.127825 19.8722C0.236548 19.9809 0.394534 20.0251 0.544028 19.986L3.80569 19.1164C3.87874 19.0927 3.945 19.0502 3.99596 18.9942L18.1163 4.8912C18.2895 4.72307 18.2912 4.44624 18.1231 4.27301C17.9549 4.09978 17.678 4.09808 17.5047 4.26622L3.46594 18.3013L1.6992 16.535L15.738 2.49995C15.8688 2.37427 15.9078 2.17896 15.8348 2.01253C15.7617 1.84609 15.5936 1.74249 15.4118 1.75268C15.3982 1.75268 15.3846 1.75268 15.371 1.75268Z" fill="white"/>
</svg>
