<svg width="25" height="35" viewBox="0 0 25 35" fill="none" xmlns="http://www.w3.org/2000/svg">
<path d="M12.5109 12.7148C12.0143 12.7148 11.6115 13.1739 11.6115 13.7402V29.8047C11.6115 30.3711 12.0143 30.8301 12.5109 30.8301C13.0077 30.8301 13.4104 30.3711 13.4104 29.8047V13.7402C13.4104 13.1739 13.0077 12.7148 12.5109 12.7148Z" fill="#CC0000"/>
<path d="M16.7468 12.7159C16.2516 12.6895 15.8309 13.1309 15.8098 13.6967L15.2102 29.7612C15.1889 30.327 15.5742 30.805 16.0705 30.8293C16.0837 30.8298 16.0965 30.8301 16.1094 30.8301C16.5887 30.8301 16.9869 30.3994 17.0075 29.8485L17.6071 13.784C17.6282 13.2179 17.2429 12.7399 16.7468 12.7159Z" fill="#CC0000"/>
<path d="M8.27523 12.7159C7.77889 12.74 7.39381 13.2182 7.41489 13.7838L8.01453 29.8482C8.03514 30.3994 8.43334 30.8301 8.91234 30.8301C8.92523 30.8301 8.93834 30.8298 8.95146 30.829C9.44757 30.805 9.83288 30.3267 9.8118 29.7612L9.21216 13.6967C9.19108 13.1309 8.77274 12.69 8.27523 12.7159Z" fill="#CC0000"/>
<path d="M24.1005 12.6558H22.0519L22.1555 10.6462H22.8783C23.3749 10.6462 23.7778 10.1872 23.7778 9.62078V7.374C23.7778 5.67783 22.5672 4.29783 21.0794 4.29783H18.0915V3.75977C18.0915 1.68655 16.6119 0 14.7935 0H10.2285C8.40993 0 6.93051 1.68655 6.93051 3.75977V4.29756H3.94262C2.45477 4.29756 1.24425 5.67757 1.24425 7.37373V9.62078C1.24425 10.1872 1.6469 10.6462 2.14371 10.6462H2.86632L2.97008 12.6558H0.899458C0.402648 12.6558 0 13.1149 0 13.6812C0 14.2473 0.402648 14.7066 0.899458 14.7066H3.07596L4.07332 34.0347C4.1012 34.5768 4.49495 35 4.97114 35H20.0509C20.5271 35 20.9208 34.5768 20.9487 34.0347L21.9461 14.7066H24.1005C24.5974 14.7066 25 14.2473 25 13.6812C25 13.1149 24.5974 12.6558 24.1005 12.6558ZM8.72942 3.75977C8.72942 2.81742 9.40191 2.05078 10.2285 2.05078H14.7933C15.6199 2.05078 16.2924 2.81742 16.2924 3.75977V4.29756H8.72942V3.75977ZM3.04316 7.37373C3.04316 6.80843 3.44675 6.34834 3.94262 6.34834H21.0792C21.5753 6.34834 21.9786 6.80843 21.9786 7.37373V8.59539H3.04316V7.37373ZM19.2027 32.9492H5.8193L4.66851 10.6462H20.3535L19.2027 32.9492Z" fill="#CC0000"/>
</svg>
