<svg width="35" height="35" viewBox="0 0 35 35" fill="none" xmlns="http://www.w3.org/2000/svg">
<path d="M33.6328 16.1328H18.8672V1.36719C18.8672 0.61209 18.2551 0 17.5 0C16.7449 0 16.1328 0.61209 16.1328 1.36719V16.1328H1.36719C0.61209 16.1328 0 16.7449 0 17.5C0 18.2551 0.61209 18.8672 1.36719 18.8672H16.1328V33.6328C16.1328 34.3879 16.7449 35 17.5 35C18.2551 35 18.8672 34.3879 18.8672 33.6328V18.8672H33.6328C34.3879 18.8672 35 18.2551 35 17.5C35 16.7449 34.3879 16.1328 33.6328 16.1328Z" fill="#CC0000"/>
</svg>
