<svg width="20" height="20" viewBox="0 0 20 20" fill="none" xmlns="http://www.w3.org/2000/svg">
<path d="M0.281315 1.66845C-0.0937715 1.29346 -0.0937715 0.669347 0.281315 0.281244C0.669515 -0.093748 1.28067 -0.093748 1.66887 0.281244L9.99508 8.61935L18.3353 0.281244C18.7104 -0.093748 19.3346 -0.093748 19.7088 0.281244C20.097 0.669347 20.097 1.29433 19.7088 1.66845L11.3826 9.99344L19.7088 18.3315C20.097 18.7065 20.097 19.3307 19.7088 19.7188C19.3338 20.0937 18.7095 20.0937 18.3353 19.7188L9.99508 11.3807L1.66887 19.7188C1.28067 20.0937 0.669515 20.0937 0.281315 19.7188C-0.0937715 19.3307 -0.0937715 18.7057 0.281315 18.3315L8.60753 9.99344L0.281315 1.66845Z" fill="#CC0000"/>
</svg>
